<svg width="554" height="176" viewBox="0 0 554 176" fill="none" xmlns="http://www.w3.org/2000/svg">
<path d="M24.3618 45.1387C16.4448 45.1387 10.4052 43.1899 6.24313 39.2924C2.08104 35.3949 0 29.8885 0 22.7733C0 15.4314 2.0358 9.81177 6.10741 5.91425C10.179 1.97142 16.2412 0 24.2939 0C27.0083 0 29.4286 0.20394 31.5549 0.611819C33.6812 1.0197 35.717 1.5862 37.6623 2.31132V13.46C33.7717 11.7379 29.6096 10.8768 25.1761 10.8768C21.0592 10.8768 18.0055 11.8285 16.015 13.7319C14.0244 15.5901 13.0291 18.6038 13.0291 22.7733C13.0291 26.8521 14.0697 29.7979 16.1507 31.6107C18.277 33.3781 21.3307 34.2619 25.3118 34.2619C27.4833 34.2619 29.587 34.0579 31.6228 33.6501C33.7038 33.2422 35.7623 32.6077 37.7981 31.7466V42.9633C35.8527 43.6431 33.7943 44.1643 31.6228 44.5269C29.4965 44.9347 27.0762 45.1387 24.3618 45.1387Z" fill="black"/>
<path d="M42.5769 44.4589V0.679799H65.31C68.884 0.679799 71.802 1.33694 74.064 2.65122C76.3712 3.9655 78.0903 5.80095 79.2213 8.15759C80.3523 10.4689 80.9178 13.1654 80.9178 16.2472C80.9178 19.193 80.1714 21.7989 78.6784 24.0649C77.2308 26.2856 75.2854 27.9851 72.8425 29.1634C73.3401 29.5713 73.7699 30.0698 74.1318 30.6589C74.4937 31.2028 74.9009 31.9732 75.3533 32.9703L80.3749 44.4589H67.0744L62.4599 33.922C62.098 33.1062 61.6456 32.5397 61.1027 32.2225C60.605 31.8599 59.8812 31.6786 58.9312 31.6786H55.3346V44.4589H42.5769ZM55.3346 21.8895H62.0527C63.9076 21.8895 65.3326 21.4137 66.3279 20.462C67.3684 19.4649 67.8887 18.06 67.8887 16.2472C67.8887 12.395 66.0791 10.4689 62.4599 10.4689H55.3346V21.8895Z" fill="black"/>
<path d="M85.6521 44.4589V0.679799H118.768V10.4689H98.4098V17.6068H116.257V27.5319H98.4098V34.6698H118.768V44.4589H85.6521Z" fill="black"/>
<path d="M121.472 44.4589L138.234 0.679799H151.738L168.499 44.4589H155.199L151.534 35.1456H138.369L134.773 44.4589H121.472ZM140.066 25.9683H149.838L144.952 13.1201L140.066 25.9683Z" fill="black"/>
<path d="M177.063 44.4589V10.197H164.781V0.679799H202.104V10.197H189.821V44.4589H177.063Z" fill="black"/>
<path d="M205.468 44.4589V0.679799H218.225V44.4589H205.468Z" fill="black"/>
<path d="M238.765 44.4589L222.003 0.679799H235.304L245.483 29.6392L255.662 0.679799H269.03L252.269 44.4589H238.765Z" fill="black"/>
<path d="M272.797 44.4589V0.679799H305.913V10.4689H285.555V17.6068H303.402V27.5319H285.555V34.6698H305.913V44.4589H272.797Z" fill="black"/>
<path d="M338.21 45.1387C335.269 45.1387 332.487 44.9121 329.863 44.4589C327.239 43.9603 325 43.2805 323.145 42.4195V31.8826C325.181 32.8343 327.443 33.6047 329.931 34.1939C332.419 34.7831 334.749 35.0776 336.92 35.0776C339.182 35.0776 340.879 34.8964 342.01 34.5338C343.186 34.1259 343.774 33.2422 343.774 31.8826C343.774 30.9309 343.435 30.1831 342.756 29.6392C342.123 29.0954 341.105 28.5969 339.703 28.1437C338.345 27.6905 336.559 27.124 334.342 26.4442C331.401 25.4925 329.071 24.4501 327.352 23.3171C325.633 22.1841 324.389 20.8019 323.62 19.1703C322.896 17.5388 322.534 15.5447 322.534 13.1881C322.534 8.88271 324.05 5.61968 327.081 3.399C330.157 1.133 334.704 0 340.721 0C343.118 0 345.584 0.20394 348.117 0.611819C350.696 1.0197 352.777 1.4729 354.36 1.97142V12.5763C352.234 11.7152 350.198 11.1034 348.253 10.7408C346.308 10.3783 344.476 10.197 342.756 10.197C340.766 10.197 339.069 10.3556 337.667 10.6728C336.264 10.9901 335.563 11.8058 335.563 13.1201C335.563 14.2531 336.151 15.0915 337.328 15.6354C338.549 16.1339 340.698 16.791 343.774 17.6068C347.348 18.5585 350.063 19.7142 351.918 21.0738C353.818 22.4334 355.107 24.0196 355.786 25.8324C356.464 27.5998 356.803 29.6166 356.803 31.8826C356.803 35.8707 355.265 39.0885 352.189 41.5357C349.113 43.9377 344.453 45.1387 338.21 45.1387Z" fill="black"/>
<path d="M371.101 44.4589V10.197H358.818V0.679799H396.141V10.197H383.858V44.4589H371.101Z" fill="black"/>
<path d="M419.863 45.1387C415.791 45.1387 412.195 44.4815 409.073 43.1673C405.997 41.8077 403.577 39.8362 401.812 37.253C400.048 34.6244 399.166 31.4067 399.166 27.5998V0.679799H411.923V26.2403C411.923 31.588 414.57 34.2619 419.863 34.2619C422.396 34.2619 424.342 33.6047 425.699 32.2905C427.056 30.9762 427.735 28.9594 427.735 26.2403V0.679799H440.492V27.5998C440.492 31.4067 439.61 34.6244 437.846 37.253C436.127 39.8362 433.706 41.8077 430.585 43.1673C427.508 44.4815 423.935 45.1387 419.863 45.1387Z" fill="black"/>
<path d="M446.291 44.4589V0.679799H465.835C470.314 0.679799 474.136 1.42758 477.303 2.92314C480.47 4.37338 482.89 6.73001 484.564 9.99305C486.238 13.2108 487.075 17.4935 487.075 22.8413C487.075 30.3644 485.243 35.8481 481.578 39.2924C477.914 42.7367 472.666 44.4589 465.835 44.4589H446.291ZM459.049 34.6698H464.206C466.333 34.6698 468.12 34.3752 469.567 33.786C471.015 33.1515 472.123 31.9959 472.892 30.319C473.661 28.5969 474.046 26.1043 474.046 22.8413C474.046 19.5782 473.684 17.063 472.96 15.2955C472.282 13.4827 471.219 12.2364 469.771 11.5566C468.323 10.8315 466.468 10.4689 464.206 10.4689H459.049V34.6698Z" fill="black"/>
<path d="M491.818 44.4589V0.679799H504.576V44.4589H491.818Z" fill="black"/>
<path d="M531.674 45.1387C524.436 45.1387 518.894 43.3712 515.048 39.8362C511.248 36.3013 509.348 30.591 509.348 22.7053C509.348 17.2669 510.208 12.8935 511.927 9.58517C513.646 6.23149 516.157 3.80688 519.459 2.31132C522.807 0.77044 526.879 0 531.674 0C536.469 0 540.518 0.77044 543.821 2.31132C547.169 3.80688 549.702 6.23149 551.421 9.58517C553.14 12.8935 554 17.2669 554 22.7053C554 30.591 552.077 36.3013 548.232 39.8362C544.386 43.3712 538.867 45.1387 531.674 45.1387ZM531.674 34.2619C534.931 34.2619 537.284 33.3555 538.731 31.5427C540.224 29.6846 540.971 26.7388 540.971 22.7053C540.971 18.3999 540.224 15.3635 538.731 13.596C537.284 11.7832 534.931 10.8768 531.674 10.8768C528.417 10.8768 526.042 11.7832 524.549 13.596C523.101 15.3635 522.377 18.3999 522.377 22.7053C522.377 26.7388 523.101 29.6846 524.549 31.5427C526.042 33.3555 528.417 34.2619 531.674 34.2619Z" fill="black"/>
<path d="M92.0815 174.311V65.5327H123.788V103.875L156.676 65.5327H192.768L154.483 110.125L195.466 174.311H161.735L134.92 130.394L123.788 142.894V174.311H92.0815Z" fill="black"/>
<path d="M249.404 176C239.284 176 230.346 174.367 222.588 171.102C214.942 167.723 208.927 162.825 204.542 156.406C200.157 149.875 197.964 141.88 197.964 132.421V65.5327H229.671V129.043C229.671 142.331 236.249 148.974 249.404 148.974C255.7 148.974 260.535 147.342 263.908 144.076C267.281 140.81 268.967 135.799 268.967 129.043V65.5327H300.674V132.421C300.674 141.88 298.482 149.875 294.097 156.406C289.824 162.825 283.809 167.723 276.051 171.102C268.405 174.367 259.523 176 249.404 176Z" fill="black"/>
<path d="M315.086 174.311V65.5327H346.793V103.875L379.681 65.5327H415.772L377.488 110.125L418.471 174.311H384.74L357.924 130.394L346.793 142.894V174.311H315.086Z" fill="black"/>
<path d="M430.212 174.311V65.5327H461.919V174.311H430.212Z" fill="black"/>
</svg>
